<svg width="16" height="16" viewBox="0 0 16 16" fill="none" xmlns="http://www.w3.org/2000/svg">
    <g>
        <path fill-rule="evenodd" clip-rule="evenodd" d="M3.561 14.9985H1.31924C1.14293 14.9985 1 14.8596 1 14.6793V12.4375C1 12.2612 1.10063 12.0176 1.2215 11.8968L9.73926 3.379C9.86159 3.25667 10.0633 3.26001 10.1868 3.3835L12.615 5.81173C12.7398 5.93655 12.7404 6.13837 12.6195 6.25924L4.10175 14.777C3.97942 14.8993 3.74133 14.9985 3.561 14.9985ZM14.0238 4.85498C13.9038 4.97491 13.6999 4.97647 13.5751 4.85165L11.1469 2.42342C11.0234 2.29992 11.0205 2.09772 11.1435 1.97474L11.8809 1.23733C12.2138 0.924376 12.5334 0.917422 12.841 1.23733L14.7612 3.1575C15.0849 3.47776 15.074 3.80892 14.7612 4.11758L14.0238 4.85498Z" fill="black" />
    </g>
</svg>
