<svg width="24" height="24" viewBox="0 0 24 24" fill="none" xmlns="http://www.w3.org/2000/svg">
    <path fill-rule="evenodd" clip-rule="evenodd" d="M15.5782 21.1309C16.1236 20.2909 16.6691 19.2109 17.0618 17.8255C17.9673 18.1746 18.5891 18.5891 18.9709 18.9164C17.9935 19.8875 16.8227 20.642 15.5345 21.1309H15.5782ZM5.01819 18.9055C5.42183 18.5782 6.03273 18.1746 6.93819 17.8146C7.34182 19.2109 7.86546 20.2909 8.42182 21.1309C7.15249 20.6315 6.00085 19.8737 5.04001 18.9055H5.01819ZM17.7818 10.9091C17.7482 9.93636 17.6498 8.96694 17.4873 8.00728C18.6873 7.57091 19.56 7.04728 20.1709 6.56728C21.0226 7.87116 21.55 9.35986 21.7091 10.9091H17.7818ZM7.01457 5.8691C6.37924 5.63523 5.78049 5.31198 5.23639 4.90911C6.15628 4.02949 7.23809 3.33669 8.42184 2.86911C7.90912 3.63274 7.4073 4.61456 7.00366 5.8691H7.01457ZM15.5782 2.86911C16.7627 3.3352 17.8448 4.02817 18.7636 4.90911C18.36 5.21456 17.7818 5.56365 16.9854 5.8691C16.6603 4.80579 16.1826 3.79527 15.5673 2.86911H15.5782ZM15.36 8.54182C15.4691 9.26182 15.5782 10.0364 15.6 10.9091H8.39999C8.43272 10.0364 8.50909 9.25091 8.61818 8.54182C10.8439 8.94279 13.1234 8.94279 15.3491 8.54182H15.36ZM12 6.65454C10.9091 6.65454 9.9491 6.56727 9.13092 6.43636C10.0036 3.75272 11.3564 2.67272 12 2.29091C12.6218 2.67272 13.9855 3.76363 14.8582 6.43636C14.04 6.56727 13.0909 6.65454 12 6.65454ZM3.81819 6.56728C4.44001 7.04728 5.31274 7.58182 6.51274 8.00728C6.36001 8.88 6.26183 9.84 6.21819 10.9091H2.24728C2.42183 9.31637 2.97819 7.85455 3.8291 6.56728H3.81819ZM2.25819 13.0909H6.21819C6.26183 14.0291 6.32728 14.8909 6.45819 15.6764C5.45344 16.022 4.516 16.5387 3.68728 17.2036C2.90256 15.9592 2.41022 14.553 2.24728 13.0909H2.25819ZM12 14.8364C10.6909 14.8364 9.56727 14.9455 8.58545 15.12C8.48969 14.4472 8.42779 13.77 8.39999 13.0909H15.6C15.5673 13.8218 15.5127 14.5091 15.4254 15.12C14.4436 14.9345 13.3091 14.8255 12 14.8255V14.8364ZM12 21.7091C11.3455 21.3164 9.90547 20.1491 9.03275 17.2364C10.0135 17.0766 11.0064 17.0036 12 17.0182C13.1455 17.0182 14.1273 17.0945 14.9782 17.2364C14.1055 20.1818 12.6655 21.3164 12.0109 21.7091H12ZM20.3127 17.1927C19.4846 16.5268 18.547 16.01 17.5418 15.6655C17.6509 14.9018 17.76 14.0291 17.7818 13.0909H21.7527C21.5882 14.5493 21.0959 15.9515 20.3127 17.1927ZM12 0C5.37258 0 0 5.37258 0 12C0 18.6274 5.37258 24 12 24C18.6274 24 24 18.6274 24 12C24 5.37258 18.6274 0 12 0Z" fill="black"/>
</svg>
