<svg width="50" height="50" viewBox="0 0 25 25" fill="none" xmlns="http://www.w3.org/2000/svg">
    <path fill-rule="evenodd" clip-rule="evenodd" d="M3.27273 2H20.7273C22.5298 2 24 3.49746 24 5.33333V18.6667C24 20.5025 22.5298 22 20.7273 22H3.27273C1.47023 22 0 20.5025 0 18.6667V5.33333C0 3.49746 1.47023 2 3.27273 2ZM3.27273 4.22223C2.67523 4.22223 2.18182 4.72477 2.18182 5.33334V15.4649L5.14547 12.3392C5.57939 11.8816 6.30127 11.8878 6.72756 12.3528L9.01357 14.8466L15.8274 7.5224C16.2844 7.03117 17.0628 7.0666 17.475 7.59739L21.8182 13.2007V5.33334C21.8182 4.72477 21.3248 4.22223 20.7273 4.22223H3.27273ZM21.8182 16.7685L16.5449 9.98202L9.80545 17.2262C9.554 17.4965 9.20089 17.6097 8.86437 17.5627C8.61986 17.5316 8.38427 17.4163 8.20295 17.2185L5.91683 14.7247L2.18182 18.6638V18.6667C2.18182 19.2752 2.67523 19.7778 3.27273 19.7778H20.7273C21.3248 19.7778 21.8182 19.2752 21.8182 18.6667V16.7685ZM6.00001 6.44446C5.09608 6.44446 4.36365 7.19046 4.36365 8.11112C4.36365 9.03179 5.09608 9.77779 6.00001 9.77779C6.90394 9.77779 7.63637 9.03179 7.63637 8.11112C7.63637 7.19046 6.90394 6.44446 6.00001 6.44446Z" fill="black"/>
</svg>
